<?xml version="1.0" standalone="no"?>
<!DOCTYPE svg PUBLIC "-//W3C//DTD SVG 20010904//EN"
 "http://www.w3.org/TR/2001/REC-SVG-20010904/DTD/svg10.dtd">
<svg version="1.0" xmlns="http://www.w3.org/2000/svg"
 width="450.000000pt" height="266.000000pt" viewBox="0 0 450.000000 266.000000"
 preserveAspectRatio="xMidYMid meet">
<metadata>
Created by potrace 1.11, written by Peter Selinger 2001-2013
</metadata>
<g transform="translate(0.000000,266.000000) scale(0.100000,-0.100000)"
fill="#000000" stroke="none">
<path d="M441 2641 c-65 -23 -100 -48 -126 -92 -46 -78 -8 -208 84 -291 27
-24 106 -75 177 -113 221 -119 236 -141 279 -405 29 -174 81 -291 148 -330
l34 -20 -18 -53 c-13 -38 -24 -53 -41 -58 -18 -4 -23 -12 -22 -36 1 -23 -3
-33 -17 -36 -16 -4 -19 -15 -19 -66 0 -58 -1 -61 -27 -68 -16 -4 -68 -7 -118
-7 -82 0 -96 3 -157 33 -55 27 -69 38 -78 67 -16 46 -57 77 -93 70 -22 -4 -33
-1 -46 16 -34 41 -70 -2 -37 -44 7 -10 11 -30 8 -47 -4 -32 -38 -46 -103 -42
-52 3 -64 -41 -14 -51 15 -2 19 -10 17 -30 -4 -31 12 -65 40 -88 18 -14 19
-17 4 -29 -14 -12 -22 -10 -56 14 -43 29 -70 28 -70 -5 0 -12 16 -30 43 -47
23 -15 52 -38 65 -52 25 -26 14 -25 204 -5 61 7 116 -3 211 -38 48 -17 55 -23
45 -35 -27 -33 -107 -78 -219 -123 -156 -63 -170 -66 -195 -39 -30 33 -69 49
-121 49 -39 0 -52 5 -79 31 -20 20 -39 29 -48 26 -24 -9 -19 -33 14 -70 38
-44 38 -67 -1 -90 -29 -16 -33 -16 -49 -2 -22 20 -49 19 -57 -2 -4 -10 2 -23
15 -34 12 -9 22 -29 22 -43 0 -30 25 -46 70 -46 l31 0 -22 -32 c-12 -18 -34
-42 -47 -54 -33 -27 -24 -55 16 -52 15 1 33 -1 40 -5 6 -5 44 7 84 25 l73 33
276 -3 c226 -3 293 -1 367 13 91 17 91 17 199 -9 172 -40 269 -49 468 -43 99
3 200 11 225 18 98 25 745 12 901 -17 60 -12 136 -16 270 -16 l186 1 70 -33
c82 -39 150 -56 236 -57 82 -1 97 -8 127 -59 14 -24 37 -52 52 -63 34 -26 145
-37 213 -22 20 4 52 -1 93 -14 122 -41 161 -18 53 32 -48 22 -74 27 -135 27
-75 0 -76 0 -65 21 6 12 9 32 6 45 -3 20 2 25 37 36 33 10 45 21 61 55 l20 42
56 -4 c30 -2 76 -9 102 -16 52 -13 79 -7 71 15 -7 19 -75 41 -174 57 -41 6
-96 21 -122 33 -44 19 -48 24 -48 56 0 29 6 38 32 53 17 10 34 14 37 10 20
-28 354 -61 401 -39 14 6 25 18 25 26 0 12 -26 16 -145 22 -80 4 -165 11 -188
17 -24 5 -56 6 -72 1 -21 -6 -30 -5 -34 6 -7 18 -31 18 -61 -2 -22 -14 -26
-14 -47 0 -52 37 -128 6 -144 -58 -7 -31 -8 -31 -154 -6 -318 56 -527 108
-531 134 0 4 61 62 138 127 97 84 148 121 172 125 19 4 77 1 130 -5 53 -7 178
-15 278 -18 l182 -6 6 -24 c8 -34 53 -73 82 -73 13 0 37 -10 53 -21 16 -12 36
-19 44 -16 20 8 21 43 1 51 -12 4 -14 10 -5 25 5 11 10 33 10 49 0 16 9 37 20
47 11 10 25 32 31 49 11 31 12 31 89 34 59 2 80 -1 90 -13 14 -17 47 -19 84
-5 18 7 35 5 62 -6 48 -20 86 -11 82 18 -2 16 -12 24 -33 28 -16 4 -40 12 -52
18 -16 9 -29 9 -53 0 -25 -8 -41 -8 -67 1 -19 7 -55 11 -81 10 -61 -4 -133 9
-154 28 -9 8 -35 17 -57 20 -40 5 -41 7 -41 44 0 21 6 42 13 46 23 15 37 41
31 57 -8 22 -37 20 -59 -4 -14 -16 -26 -18 -62 -13 -37 5 -48 2 -69 -17 -13
-13 -29 -41 -36 -62 -6 -21 -15 -38 -21 -38 -64 0 -506 72 -529 86 -4 3 -8 16
-8 30 0 56 -74 152 -132 169 -13 4 -37 20 -54 35 -78 68 -465 169 -481 125 -2
-6 22 -37 53 -69 30 -32 54 -60 51 -62 -2 -3 -62 0 -131 6 -110 8 -131 13
-159 34 -39 30 -176 86 -210 86 -13 0 -36 -9 -50 -20 l-25 -20 -57 25 c-31 14
-78 28 -103 32 -41 6 -47 4 -67 -21 l-22 -27 -93 31 c-52 17 -100 28 -107 26
-7 -3 -13 -18 -13 -34 l0 -28 -67 4 c-47 2 -76 9 -93 23 -75 57 -114 73 -178
75 -35 1 -69 7 -75 13 -8 8 -11 48 -10 119 6 308 -102 628 -277 816 -128 139
-326 200 -479 147z m288 -77 c139 -69 252 -212 329 -417 50 -134 71 -243 83
-437 14 -213 17 -220 114 -220 46 0 72 -6 105 -24 102 -56 126 -64 212 -71
l88 -7 12 27 c8 18 16 24 27 19 48 -20 109 -34 149 -34 35 0 45 4 49 20 7 25
11 25 86 -5 92 -38 132 -42 149 -16 16 27 48 27 101 0 55 -28 54 -27 29 -45
-12 -8 -22 -26 -22 -38 0 -42 89 -156 121 -156 39 0 29 40 -27 103 -19 20 -34
42 -34 48 0 11 104 9 307 -7 91 -7 113 1 113 41 0 13 -12 38 -27 55 l-26 31
39 -7 c54 -9 154 -41 206 -64 l42 -19 -29 -11 c-37 -14 -62 -36 -86 -74 -16
-26 -23 -29 -76 -31 -88 -2 -158 -30 -213 -84 -26 -25 -49 -53 -52 -61 -4 -13
-7 -13 -21 -1 -20 16 -47 8 -47 -15 0 -10 -6 -14 -14 -11 -22 9 -36 -14 -36
-61 0 -77 44 -142 98 -142 30 0 42 30 17 44 -35 21 -55 46 -55 70 0 23 1 22
38 -13 84 -79 178 -128 228 -119 12 2 17 -7 20 -36 2 -21 10 -49 19 -62 20
-31 79 -60 139 -69 l48 -8 -26 -25 -26 -26 -52 26 c-74 37 -106 44 -114 24 -3
-9 0 -24 7 -33 26 -31 213 -107 368 -149 106 -29 560 -113 577 -107 6 2 15 25
20 51 8 40 13 47 35 50 15 2 32 -5 43 -17 15 -17 16 -25 6 -55 -6 -19 -20 -46
-31 -59 -35 -46 7 -80 46 -37 36 39 100 18 93 -31 -5 -35 -31 -45 -80 -32 -35
10 -46 9 -57 -2 -12 -11 -11 -17 8 -41 28 -36 27 -70 -3 -89 -32 -21 -59 -7
-85 43 -34 66 -50 74 -168 84 -120 9 -151 17 -238 62 l-60 30 -215 1 -215 0
-167 43 c-179 46 -254 52 -252 19 2 -16 -15 -17 -215 -17 -137 0 -254 -6 -321
-15 -226 -32 -387 -29 -585 11 -119 24 -117 23 -110 43 3 10 -1 24 -9 30 -11
10 -22 8 -53 -7 -84 -43 -185 -57 -383 -53 -406 9 -388 10 -451 -26 -31 -18
-59 -33 -63 -33 -11 0 14 40 51 81 51 56 41 73 -40 65 l-62 -7 30 26 c35 29
43 30 81 10 20 -10 32 -11 41 -3 22 18 15 38 -23 60 -30 18 -33 23 -20 30 22
12 55 1 94 -33 42 -37 68 -37 189 2 172 55 255 106 339 207 78 95 122 189 130
279 6 62 10 72 30 82 13 6 24 19 24 30 0 10 7 21 15 25 11 4 15 20 15 56 0 31
10 74 25 112 32 79 32 98 0 98 -38 0 -91 54 -115 118 -22 59 -34 107 -70 295
-11 60 -29 126 -40 147 -29 57 -106 119 -227 182 -135 71 -184 106 -223 160
-41 56 -54 107 -40 158 30 111 210 143 369 64z m2318 -1289 c60 -18 109 -67
119 -120 15 -81 -60 -185 -134 -185 -20 0 -47 3 -60 6 -21 6 -23 11 -17 44 9
52 -10 113 -45 149 -17 16 -30 36 -30 43 0 27 67 75 106 77 6 1 33 -6 61 -14z
m-2568 -109 c7 -8 11 -32 9 -53 l-3 -38 50 -5 c29 -3 70 -17 98 -34 46 -27 51
-28 162 -25 l114 4 -6 -25 c-8 -34 -56 -129 -80 -159 -18 -22 -21 -23 -49 -9
-16 9 -54 23 -84 32 -93 29 -87 26 -68 37 24 13 39 44 32 64 -9 22 -57 45 -98
47 -61 2 -128 -61 -107 -100 9 -17 6 -20 -21 -26 -17 -3 -42 -6 -57 -6 l-26 1
32 27 c17 15 43 35 57 45 37 25 24 47 -29 47 -71 0 -88 15 -69 64 9 23 51 20
66 -4 15 -23 46 -27 54 -6 3 8 -2 28 -10 45 -17 31 -21 73 -9 84 11 11 30 8
42 -7z m2378 -22 c32 -24 44 -50 19 -41 -24 9 -68 -36 -59 -60 10 -29 24 -43
44 -43 46 0 -2 -48 -85 -84 -70 -31 -110 -33 -154 -6 -83 51 -93 138 -23 201
51 46 90 59 168 56 44 -2 71 -9 90 -23z m1043 -65 c9 -16 8 -32 -4 -69 -9 -27
-16 -54 -16 -60 0 -21 30 -22 56 -1 47 37 104 23 104 -25 0 -27 -21 -45 -50
-42 -37 5 -47 -24 -21 -61 26 -36 21 -51 -18 -51 -29 0 -45 23 -53 75 -3 19
-12 20 -183 21 -101 1 -238 9 -313 18 -143 19 -175 15 -227 -26 l-26 -20 -20
21 c-15 15 -32 21 -66 21 -39 0 -44 2 -33 15 7 8 24 15 39 15 55 0 119 62 137
133 5 23 11 28 28 23 85 -24 484 -85 581 -90 18 -1 20 4 17 48 -2 26 -1 55 2
62 8 22 54 17 66 -7z"/>
<path d="M1975 644 c-33 -14 -102 -36 -153 -49 -105 -28 -135 -41 -129 -58 8
-23 126 -11 232 23 121 39 175 67 175 92 0 26 -51 23 -125 -8z"/>
<path d="M1691 495 c-79 -14 -103 -27 -84 -46 20 -20 98 -22 184 -4 87 17 109
28 109 51 0 18 -106 17 -209 -1z"/>
<path d="M4166 1195 c-13 -10 -43 -15 -83 -15 -56 0 -63 -2 -63 -20 0 -10 10
-25 22 -31 28 -15 119 -6 151 15 21 15 28 15 66 1 43 -15 220 -37 234 -28 4 2
7 12 7 22 0 19 -16 23 -85 22 -16 0 -40 6 -52 15 -13 8 -28 12 -34 9 -5 -4
-21 0 -34 9 -30 20 -104 20 -129 1z"/>
<path d="M4175 701 c-88 -6 -115 -13 -115 -31 0 -17 72 -32 138 -29 37 1 79
-1 94 -5 27 -8 68 7 68 25 0 8 -88 53 -93 47 -1 -1 -42 -4 -92 -7z"/>
</g>
</svg>
