<?xml version="1.0" standalone="no"?>
<!DOCTYPE svg PUBLIC "-//W3C//DTD SVG 20010904//EN"
 "http://www.w3.org/TR/2001/REC-SVG-20010904/DTD/svg10.dtd">
<svg version="1.0" xmlns="http://www.w3.org/2000/svg"
 width="450.000000pt" height="431.000000pt" viewBox="0 0 450.000000 431.000000"
 preserveAspectRatio="xMidYMid meet">
<metadata>
Created by potrace 1.11, written by Peter Selinger 2001-2013
</metadata>
<g transform="translate(0.000000,431.000000) scale(0.100000,-0.100000)"
fill="#000000" stroke="none">
<path d="M1736 4294 c-75 -18 -150 -61 -294 -167 -63 -46 -198 -137 -300 -202
-103 -65 -319 -204 -479 -308 -247 -160 -293 -194 -293 -213 0 -21 28 -38 230
-139 l229 -115 -35 -52 c-87 -131 -140 -282 -185 -523 -68 -368 -119 -529
-261 -825 -97 -202 -133 -294 -178 -453 -99 -347 -170 -802 -170 -1084 0 -120
15 -183 45 -183 31 0 39 43 27 158 -16 154 -1 294 69 647 77 390 136 584 254
836 141 301 206 508 275 868 51 266 108 416 212 555 29 38 48 73 44 81 -3 8
-102 63 -221 122 -118 59 -215 110 -215 113 0 4 792 516 854 552 9 5 11 -15 8
-83 -8 -158 37 -307 139 -459 67 -100 135 -164 223 -211 76 -41 184 -51 256
-25 25 9 81 28 125 42 134 43 231 100 316 184 113 111 159 217 159 366 0 102
-26 191 -79 270 -47 70 -78 100 -148 147 l-53 34 152 6 c351 16 547 5 678 -36
l45 -14 -50 -8 c-193 -30 -396 -170 -467 -321 -58 -124 -50 -272 21 -409 20
-38 37 -72 39 -76 1 -3 -24 -2 -55 2 -105 13 -170 11 -177 -7 -8 -22 -11 -18
40 -75 46 -52 114 -178 114 -210 0 -9 -11 -37 -25 -60 -39 -70 -67 -162 -63
-216 3 -43 6 -48 29 -51 30 -3 41 16 59 103 37 176 66 195 201 130 41 -19 81
-35 90 -35 24 0 42 26 34 51 -9 27 -112 76 -193 91 -55 10 -60 14 -70 44 -9
30 -6 41 26 101 19 38 36 70 38 72 2 2 25 -16 51 -39 95 -84 238 -129 367
-115 35 3 100 19 144 34 78 27 216 105 242 136 22 27 37 17 45 -30 12 -85 67
-230 185 -490 180 -397 331 -762 472 -1139 69 -186 158 -476 158 -517 0 -15
-9 -43 -20 -62 -11 -19 -33 -72 -49 -119 -38 -113 -95 -226 -132 -261 -16 -15
-29 -34 -29 -42 0 -20 -77 -82 -137 -111 -130 -61 -322 -46 -508 40 -56 26
-90 53 -173 136 -115 115 -240 265 -294 355 -20 33 -50 97 -66 142 l-30 82 44
21 43 21 34 -25 c51 -39 111 -56 199 -56 76 0 80 -1 104 -29 44 -52 126 -84
230 -89 99 -5 145 5 204 44 93 62 130 201 95 352 -21 89 -41 124 -68 120 -30
-4 -33 -47 -12 -175 19 -115 13 -150 -33 -205 -35 -41 -83 -60 -153 -59 -144
0 -239 60 -239 150 0 17 13 64 30 106 34 85 38 132 14 142 -43 16 -84 -56
-110 -193 l-18 -97 -63 6 c-79 8 -130 31 -154 71 -24 40 -24 56 3 202 22 127
21 154 -10 154 -24 0 -47 -26 -61 -70 -15 -47 -31 -215 -25 -250 5 -23 1 -29
-31 -44 -51 -25 -94 -30 -142 -17 -63 17 -124 68 -156 131 -55 107 -22 233 91
353 118 123 260 187 433 195 197 9 334 -30 531 -150 212 -128 261 -148 274
-113 15 38 -66 103 -248 199 -403 214 -777 189 -1034 -68 -51 -52 -81 -93
-110 -150 -34 -70 -39 -87 -39 -155 0 -86 27 -158 84 -223 37 -42 141 -98 181
-98 24 0 28 -5 34 -41 15 -93 147 -298 319 -494 138 -158 189 -203 289 -255
105 -55 207 -80 327 -80 153 0 274 42 369 129 l42 39 26 -31 c68 -80 117 -232
134 -409 14 -140 24 -168 61 -168 l29 0 0 88 c0 65 -8 121 -34 222 -37 151
-75 242 -130 314 l-37 48 34 67 c20 36 63 136 97 221 58 145 61 159 56 215
-12 141 -81 351 -261 800 -172 427 -250 610 -375 880 -110 238 -163 381 -180
489 l-11 68 41 55 c23 30 56 84 73 121 26 56 31 79 32 142 0 104 -30 164 -134
263 -82 78 -192 141 -291 167 -24 7 -58 25 -74 41 -41 40 -151 73 -304 93
-172 22 -1175 22 -1266 0z m399 -98 c252 -70 392 -258 356 -479 -23 -144 -109
-261 -246 -334 -87 -46 -261 -113 -322 -124 -63 -12 -151 7 -210 44 -152 96
-307 407 -289 580 16 158 151 277 366 323 83 17 264 12 345 -10z m1225 -111
c149 -39 287 -142 336 -250 22 -47 26 -68 22 -123 -5 -99 -41 -165 -147 -270
-125 -126 -245 -190 -394 -214 -64 -10 -85 -9 -143 5 -245 61 -414 338 -334
549 52 137 198 258 362 302 70 19 229 20 298 1z"/>
<path d="M2011 3874 c-76 -53 -61 -194 23 -209 66 -13 146 50 146 113 0 15
-17 41 -44 68 -49 48 -84 56 -125 28z"/>
<path d="M2865 3885 c-55 -54 -18 -155 57 -155 80 1 130 107 75 158 -34 32
-100 30 -132 -3z"/>
<path d="M1828 2120 c-227 -48 -429 -146 -776 -377 -198 -132 -296 -217 -290
-254 7 -52 81 -15 276 140 341 270 703 431 969 431 253 0 421 -132 448 -351
10 -84 -9 -162 -48 -195 l-31 -26 -16 23 c-53 83 -168 225 -225 277 -66 62
-101 76 -123 49 -17 -20 17 -67 143 -197 147 -150 176 -210 141 -294 -8 -18
-29 -45 -47 -59 -31 -23 -128 -67 -148 -67 -5 0 -11 24 -14 53 -11 95 -130
296 -203 344 -31 20 -61 7 -56 -23 2 -11 36 -69 76 -129 92 -139 106 -166 106
-205 0 -76 -56 -121 -177 -141 -67 -11 -70 -11 -129 19 -129 65 -249 177 -272
254 -6 18 -13 57 -17 87 -8 67 -20 91 -45 91 -30 0 -43 -36 -37 -100 13 -152
149 -310 342 -401 75 -34 84 -37 143 -30 l62 7 -5 -36 c-23 -141 -72 -237
-171 -329 -139 -129 -309 -191 -531 -191 -216 0 -396 55 -535 165 -77 60 -113
123 -109 190 7 135 6 147 -12 159 -26 16 -53 -20 -67 -89 -52 -249 261 -482
672 -502 262 -13 493 69 655 233 104 105 173 258 173 383 0 33 4 40 29 51 16
6 37 20 47 31 9 10 27 19 39 19 44 0 152 40 212 79 69 44 103 94 111 157 4 40
7 44 33 44 18 0 35 9 48 26 37 47 46 93 46 239 0 134 -1 142 -29 200 -101 207
-368 306 -658 245z"/>
</g>
</svg>
